PathFileType	4	(X/Y/Z)	Run_200 02
DataRate	CameraRate	NumFrames	NumMarkers	Units	OrigDataRate	OrigDataStartFrame	OrigNumFrames
100	100	4	42	mm	100	186	128
Frame#	Time	LASI			RASI			LPSI			RPSI			RTH1			RTH2			RTH3			LTH1			LTH2			LTH3			RTB1			RTB2			RTB3			LTB1			LTB2			LTB3			RCAL			RTOE			RMT5			LCAL			LTOE			LMT5			LACR			RACR			CLAV			C7			RUA1			RUA2			RUA3			RLEL			RMEL			LUA1			LUA2			LUA3			LLEL			LMEL			RFAsuperior			RFAradius			RFAulna			LFAsuperior			LFAradius			LFAulna			
		X1	Y1	Z1	X2	Y2	Z2	X3	Y3	Z3	X4	Y4	Z4	X5	Y5	Z5	X6	Y6	Z6	X7	Y7	Z7	X8	Y8	Z8	X9	Y9	Z9	X10	Y10	Z10	X11	Y11	Z11	X12	Y12	Z12	X13	Y13	Z13	X14	Y14	Z14	X15	Y15	Z15	X16	Y16	Z16	X17	Y17	Z17	X18	Y18	Z18	X19	Y19	Z19	X20	Y20	Z20	X21	Y21	Z21	X22	Y22	Z22	X23	Y23	Z23	X24	Y24	Z24	X25	Y25	Z25	X26	Y26	Z26	X27	Y27	Z27	X28	Y28	Z28	X29	Y29	Z29	X30	Y30	Z30	X31	Y31	Z31	X32	Y32	Z32	X33	Y33	Z33	X34	Y34	Z34	X35	Y35	Z35	X36	Y36	Z36	X37	Y37	Z37	X38	Y38	Z38	X39	Y39	Z39	X40	Y40	Z40	X41	Y41	Z41	X42	Y42	Z42	

183	2.96	965.425193	1001.00761	-434.498957	956.662365	1004.52635	-195.935786	801.457313	1049.154015	-373.405337	797.063598	1050.243016	-273.330752	844.505523	768.638428	-143.709832	880.854118	673.733905	-156.922736	793.917868	601.60247	-167.1887	965.4219419999999	810.115186	-485.880572	1042.364229	721.397994	-466.594724	1013.094253	602.506084	-440.323465	710.298764	393.792928	-225.987713	629.326292	364.496386	-180.748873	572.6834700000001	266.984946	-241.218617	1094.304653	421.752213	-369.83035	1046.99894	332.775925	-422.775556	1095.760162	232.343812	-349.872336	441.380362	273.982097	-260.884095	540.770433	80.379716	-293.041914	484.702078	87.889853	-193.058585	1013.980701	101.773744	-321.425148	1230.451785	107.677239	-319.388855	1190.203493	63.901188	-413.756224	924.9013220000001	1491.291157	-467.41603	972.910004	1481.583655	-181.100952	1033.10606	1411.787353	-323.130737	900.87924	1515.177934	-313.242257	949.501721	1387.729242	-73.066908	879.99496	1333.551585	-61.207157	930.122147	1277.609656	-10.519917	910.716182	1211.431898	26.754245	864.0266350000001	1181.098537	-29.580608	815.268027	1422.401356	-539.232714	767.591268	1380.172735	-479.197686	758.23119	1340.503086	-560.936563	698.877147	1271.067291	-574.126442	688.534048	1254.073084	-502.295801	1016.792579	1196.22409	-19.547899	1096.53258	1189.335379	-131.698382	1093.159334	1125.047928	-104.257404	809.855938	1232.784903	-574.237434	921.926603	1168.010725	-513.102222	892.253178	1123.47863	-553.5576	
184	2.97	967.2350269999999	996.986214	-434.881646	958.238954	1001.723095	-196.001238	803.478516	1044.048448	-374.841773	798.45311	1045.799906	-274.23536	850.748186	763.731434	-143.796029	888.789021	669.42627	-156.622581	803.611301	595.642127	-166.111283	966.728382	804.337027	-485.223009	1043.488219	716.099255	-465.063179	1012.472471	597.013877	-438.123638	717.256028	389.974866	-224.328551	635.022278	364.417103	-179.211217	574.049161	269.643073	-239.749378	1089.35297	414.145402	-366.472696	1040.168576	326.731924	-419.738929	1086.447349	225.138491	-346.16016	445.997228	284.862337	-258.199835	527.92816	83.33561899999999	-292.067212	474.575687	95.235974	-192.183206	1000.111269	102.16411	-316.76428	1216.927604	90.99662600000001	-317.383271	1173.029447	55.746721	-413.630011	926.6926099999999	1487.312401	-468.737344	972.01685	1477.647706	-182.033211	1033.536778	1408.136022	-323.538423	901.231591	1511.200551	-314.949195	947.500185	1384.056796	-74.052611	877.333128	1330.185158	-62.805797	927.171946	1274.843476	-10.947405	907.387908	1208.616424	26.193792	861.061184	1178.232285	-30.358006	817.650183	1417.853524	-541.13271	769.698348	1375.728924	-481.01314	760.815174	1335.533723	-562.297543	701.922567	1265.39996	-575.3198599999999	691.93867	1248.329849	-503.436292	1013.836347	1192.849128	-19.272578	1094.26614	1185.489282	-130.934841	1090.482413	1121.321031	-103.371244	813.381558	1228.727524	-575.726511	926.400021	1165.524069	-514.493522	897.371086	1120.382591	-554.824211	
185	2.98	968.274988	992.604034	-435.223737	959.94921	997.866958	-196.208465	804.2302089999999	1038.192153	-375.493092	799.401766	1040.15267	-275.135719	857.452873	758.10469	-143.560501	897.190748	664.426348	-155.421914	813.823881	588.67696	-164.968481	968.1037240000001	798.74605	-484.673268	1044.703693	710.631228	-463.372942	1012.328563	592.001187	-436.665003	725.574937	385.571717	-222.556321	642.213915	363.544621	-177.786767	577.007734	271.834947	-238.330341	1085.61006	406.537507	-363.815253	1034.183145	321.354147	-416.511642	1076.858609	218.684373	-341.717511	453.072031	294.780409	-255.727135	517.054072	86.915254	-291.112784	465.690494	102.777705	-191.494465	984.423227	102.587331	-312.996801	1201.549735	78.66547300000001	-315.527801	1155.300242	51.131292	-413.05446	928.495685	1482.501405	-470.151382	970.9066759999999	1472.97856	-182.793395	1034.022648	1403.480474	-323.792222	901.296971	1506.147357	-316.673597	944.824206	1379.512549	-74.868127	873.912022	1325.844567	-64.75233799999999	923.302681	1271.147343	-11.452044	903.112426	1204.992543	25.525857	857.201177	1174.571617	-31.300085	820.348732	1411.920565	-543.50306	771.935117	1369.946966	-483.555778	763.964055	1329.17891	-564.2907300000001	705.652246	1258.400322	-577.369471	695.604741	1241.334728	-505.305184	1009.966823	1188.315364	-18.822346	1091.349406	1180.180018	-129.803135	1086.907304	1116.2079	-102.038745	817.663627	1223.505243	-577.742837	931.583756	1162.102902	-516.001318	903.218488	1116.328022	-556.244217	
186	2.99	968.168528	988.333071	-435.628924	961.585763	993.057181	-196.821207	803.385096	1031.973906	-375.24172	799.6108840000001	1033.547476	-275.945154	864.4015010000001	751.777674	-143.205352	905.830864	658.969617	-153.665922	824.559306	580.996819	-163.866735	969.2592990000001	794.256153	-484.542147	1045.900448	705.530563	-461.983666	1013.592373	588.549314	-436.364887	735.083216	381.101882	-220.809131	650.89492	362.235006	-176.439499	581.410936	273.847482	-236.560481	1083.662043	401.230807	-361.241143	1030.796174	318.188694	-414.044928	1067.05001	214.585288	-337.266001	461.810979	303.772587	-253.686411	509.63166	91.430131	-289.365695	458.6991	110.94141	-190.50122	967.347064	103.117003	-310.610061	1184.799583	72.763024	-313.888472	1137.271703	50.285832	-412.05983	930.271673	1477.059369	-471.795592	969.5657670000001	1468.044023	-183.234709	1034.646199	1398.008863	-323.862741	900.893584	1500.289999	-318.280607	941.398725	1374.16343	-75.52814100000001	869.940668	1320.632825	-66.965439	918.619487	1266.537528	-12.072185	897.892353	1200.725001	24.678385	852.557946	1170.373301	-32.541406	823.292613	1404.693874	-546.2761379999999	774.283586	1362.786108	-486.75556	767.616354	1321.44832	-566.902182	710.075184	1250.18229	-580.214455	699.525965	1233.124839	-507.945452	1005.167391	1182.723944	-18.204316	1087.809637	1173.419418	-128.267034	1082.462214	1109.732449	-100.194552	822.700305	1217.14426	-580.470795	937.296361	1157.729011	-517.528714	909.740508	1111.33901	-557.801903	
